<svg height="512" viewBox="0 0 256 256" width="512" xmlns="http://www.w3.org/2000/svg"><path d="m20.613 66v124l107.387 62 107.387-62v-124l-107.387-62z" fill="#526faa"/><path d="m20.613 66v124l10-6.314v-93.421z" fill="#708dc8"/><path d="m235.387 66v124l-10-6.314v-93.421z" fill="#34518c"/><g fill="#690589"><path d="m128 254a2 2 0 0 1 -1-.268l-107.387-62a2 2 0 0 1 -1-1.732v-124a2 2 0 0 1 1-1.732l107.387-62a2 2 0 0 1 2 0l107.387 62a2 2 0 0 1 1 1.732v124a2 2 0 0 1 -1 1.732l-107.387 62a2 2 0 0 1 -1 .268zm-105.387-65.155 105.387 60.845 105.387-60.845v-121.69l-105.387-60.845-105.387 60.845z"/><path d="m128 58a2 2 0 0 1 -2-2v-52a2 2 0 0 1 4 0v52a2 2 0 0 1 -2 2z"/><path d="m194.835 166.4h-133.67a2 2 0 0 1 -1.7-3.05l66.835-108.4a2 2 0 0 1 3.406 0l66.835 108.4a2 2 0 0 1 -1.7 3.05zm-130.087-4h126.5l-63.248-102.59z"/><path d="m128 254a2 2 0 0 1 -1.59-.787l-66.835-87.6a2 2 0 0 1 1.59-3.212h133.67a2 2 0 0 1 1.59 3.212l-66.835 87.6a2 2 0 0 1 -1.59.787zm-62.795-87.6 62.795 82.3 62.794-82.3z"/></g><path d="m123.452 146.7a2.781 2.781 0 0 1 -2.821 2.821h-18.256a2.763 2.763 0 0 1 -2.1-.923 2.834 2.834 0 0 1 .154-4l15.179-13.744a6.429 6.429 0 0 0 2.154-4.923 6.643 6.643 0 0 0 -1.692-4.462 6.507 6.507 0 0 0 -4.923-2.154 6.734 6.734 0 0 0 -4.462 1.693l-1.59 1.436a2.791 2.791 0 0 1 -4-.206 2.837 2.837 0 0 1 .2-4l1.59-1.435a12.112 12.112 0 0 1 8.257-3.18 12.345 12.345 0 0 1 9.128 4.051 12.112 12.112 0 0 1 3.18 8.257 12.346 12.346 0 0 1 -4.052 9.128l-9.692 8.769h10.923a2.825 2.825 0 0 1 2.823 2.872z" fill="#f4efed"/><path d="m130.532 131.575a21.962 21.962 0 0 1 3.487-12.257c2.154-3.282 5.487-5.692 9.539-5.692 3.948 0 7.333 2.41 9.487 5.692a23.578 23.578 0 0 1 0 24.513c-2.154 3.231-5.539 5.693-9.487 5.693-4.052 0-7.385-2.462-9.539-5.693a22.081 22.081 0 0 1 -3.487-12.256zm20.256 0a17.013 17.013 0 0 0 -2.461-9.128c-1.487-2.154-3.18-3.18-4.769-3.129-1.59-.051-3.334.975-4.872 3.129a17.013 17.013 0 0 0 -2.462 9.128 16.828 16.828 0 0 0 2.462 9.077c1.538 2.205 3.282 3.179 4.872 3.179s3.282-.974 4.769-3.179a16.828 16.828 0 0 0 2.461-9.077z" fill="#f4efed"/><path d="m30.613 162.623a2 2 0 0 1 -2-2v-12a2 2 0 0 1 4 0v12a2 2 0 0 1 -2 2z" fill="#690589"/><path d="m235.385 192a2 2 0 0 1 -1.066-.31l-40.554-25.6a2 2 0 0 1 -.781-2.454l39.523-95.896-104.507-9.731-104.507 9.731 39.519 95.9a2 2 0 0 1 -.781 2.453l-40.55 25.6a2 2 0 0 1 -2.136-3.382l39.128-24.7-39.909-96.849a2 2 0 0 1 1.663-2.753l107.387-10a1.927 1.927 0 0 1 .372 0l107.387 10a2 2 0 0 1 1.663 2.753l-39.913 96.838 39.132 24.7a2 2 0 0 1 -1.07 3.692z" fill="#690589"/></svg>